.........Why be the same as everyone else when YOU can be UNiQUE.........




General
Complete name : Rise of the Guardians 2012 TS NEW SOURCE x264 AAC-UNiQUE.mp4
Format : MPEG-4
Format profile : Base Media
Codec ID : isom
File size : 1.44 GiB
Duration : 1h 27mn
Overall bit rate mode : Variable
Overall bit rate : 2 351 Kbps
Encoded date : UTC 2012-11-29 12:32:49

Video
ID : 1
Format : AVC
Format/Info : Advanced Video Codec
Format profile : High@L4.1
Format settings, CABAC : Yes
Format settings, ReFrames : 3 frames
Codec ID : avc1
Codec ID/Info : Advanced Video Coding
Duration : 1h 27mn
Bit rate mode : Variable
Bit rate : 2 212 Kbps
Maximum bit rate : 40.0 Mbps
Width : 720 pixels
Height : 354 pixels
Display aspect ratio : 2.034
Frame rate mode : Constant
Frame rate : 29.970 fps
Color space : YUV
Chroma subsampling : 4:2:0
Bit depth : 8 bits
Scan type : Progressive
Bits/(Pixel*Frame) : 0.290
Stream size : 1.35 GiB (94%)
Writing library : x264 core 129 r2230 1cffe9f

Audio
ID : 2
Format : AAC
Format/Info : Advanced Audio Codec
Format profile : LC
Codec ID : 40
Duration : 1h 27mn
Bit rate mode : Variable
Bit rate : 135 Kbps
Maximum bit rate : 153 Kbps
Channel(s) : 2 channels
Channel positions : Front: L R
Sampling rate : 48.0 KHz
Compression mode : Lossy
Stream size : 84.2 MiB (6%)
Language : English
Encoded date : UTC 2012-11-29 12:34:50

Sources : Video - MATiNE 720p files - Thanks!
: Audio - echo/MATiNE

Sample Included : Yes.

Storyline
When the evil spirit Pitch launches an assault on Earth, the Immortal Guardians team up to protect the innocence of children all around the world.


Notes:
Sweet.., ok now the source was a bit bright and had a bit of camera movement, some borders do still show now and again, and theres a bit of scoll flicker not always but some to mention, anyways i lowered the bright a bit then just messed with crop, resize, contrast, hue, levels then sharpened and to me this looks mint. Audio is good enough line but we used 90 secs of cam audio to fill gaps in our vid.

Enjoy another KICKASS UNiQUE RELEASE !!!!!!

 
http://www.shotpix.com/images/91378507660272686595.png
 
http://www.shotpix.com/images/61526621571921660923.png
 
http://www.shotpix.com/images/54205663771500673045.png
 
http://www.shotpix.com/images/70046164223923183059.png
 
http://www.shotpix.com/images/56727330999300509391.png